<svg width="40" height="40" viewBox="0 0 40 40" fill="none" xmlns="http://www.w3.org/2000/svg">
<path fill-rule="evenodd" clip-rule="evenodd" d="M17.5032 2.33798C18.2625 1.90047 19.1234 1.67017 19.9997 1.67017C20.876 1.67017 21.7369 1.90049 22.4962 2.33803C22.4974 2.3387 22.4985 2.33937 22.4997 2.34004L34.1663 9.00669C34.9257 9.44511 35.5564 10.0755 35.9952 10.8346C36.434 11.5937 36.6654 12.4549 36.6663 13.3317V26.6685C36.6654 27.5453 36.434 28.4064 35.9952 29.1656C35.5564 29.9247 34.9257 30.555 34.1663 30.9935L34.1599 30.9972L22.4997 37.6601C22.4987 37.6607 22.4977 37.6613 22.4967 37.6618C21.7373 38.0996 20.8762 38.33 19.9997 38.33C19.1232 38.33 18.2621 38.0996 17.5028 37.6619C17.5017 37.6613 17.5007 37.6607 17.4997 37.6601L5.83944 30.9972L5.83301 30.9935C5.07366 30.555 4.44296 29.9247 4.00416 29.1656C3.56537 28.4064 3.33391 27.5453 3.33301 26.6685V13.3317C3.33391 12.4549 3.56536 11.5937 4.00416 10.8346C4.44296 10.0755 5.07366 9.44511 5.83301 9.0067L5.83943 9.00299L17.5032 2.33798ZM19.9997 5.0035C19.7071 5.0035 19.4197 5.08051 19.1663 5.22679L19.1599 5.2305L7.49967 11.8935C7.4988 11.894 7.49792 11.8945 7.49705 11.895C7.2451 12.041 7.03582 12.2506 6.89006 12.5028C6.74391 12.7556 6.66677 13.0424 6.66634 13.3344V26.6658C6.66677 26.9578 6.74391 27.2446 6.89006 27.4974C7.03582 27.7496 7.2451 27.9591 7.49705 28.1052C7.49792 28.1057 7.4988 28.1062 7.49967 28.1067L19.1663 34.7734C19.4197 34.9197 19.7071 34.9967 19.9997 34.9967C20.2922 34.9967 20.5796 34.9197 20.833 34.7734L20.8394 34.7697L32.4997 28.1067C32.5006 28.1062 32.5014 28.1057 32.5023 28.1052C32.7543 27.9591 32.9635 27.7496 33.1093 27.4974C33.2556 27.2444 33.3327 26.9573 33.333 26.665V13.3351C33.3327 13.0429 33.2556 12.7558 33.1093 12.5028C32.9635 12.2506 32.7543 12.0411 32.5023 11.895C32.5014 11.8945 32.5006 11.894 32.4997 11.8935L20.833 5.2268C20.5796 5.08052 20.2922 5.0035 19.9997 5.0035Z" fill="#F87F7F"/>
<path fill-rule="evenodd" clip-rule="evenodd" d="M4.00747 10.7655C4.46837 9.96874 5.48792 9.69647 6.28469 10.1574L20.0001 18.0913L33.7156 10.1574C34.5124 9.69647 35.5319 9.96874 35.9928 10.7655C36.4537 11.5623 36.1814 12.5818 35.3847 13.0427L20.8347 21.4594C20.3184 21.758 19.6819 21.758 19.1656 21.4594L4.61561 13.0427C3.81884 12.5818 3.54656 11.5623 4.00747 10.7655Z" fill="#F87F7F"/>
<path fill-rule="evenodd" clip-rule="evenodd" d="M19.9997 18.3333C20.9201 18.3333 21.6663 19.0794 21.6663 19.9999V36.7999C21.6663 37.7204 20.9201 38.4666 19.9997 38.4666C19.0792 38.4666 18.333 37.7204 18.333 36.7999V19.9999C18.333 19.0794 19.0792 18.3333 19.9997 18.3333Z" fill="#F87F7F"/>
</svg>
