<svg width="40" height="40" viewBox="0 0 40 40" fill="none" xmlns="http://www.w3.org/2000/svg">
<path fill-rule="evenodd" clip-rule="evenodd" d="M8.61358 4.07542C8.92269 3.61175 9.44307 3.33325 10.0003 3.33325H30.0003C30.5576 3.33325 31.078 3.61175 31.3871 4.07542L38.0537 14.0754C38.4499 14.6696 38.4234 15.4501 37.988 16.0161L21.3214 37.6828C21.0059 38.0929 20.5178 38.3333 20.0003 38.3333C19.4829 38.3333 18.9948 38.0929 18.6793 37.6828L2.01262 16.0161C1.57722 15.4501 1.5508 14.6696 1.94691 14.0754L8.61358 4.07542ZM10.8923 6.66659L5.383 14.9305L20.0003 33.933L34.6177 14.9305L29.1084 6.66659H10.8923Z" fill="#F87F7F"/>
<path fill-rule="evenodd" clip-rule="evenodd" d="M20.9214 3.50933C21.7447 3.09768 22.7458 3.43139 23.1575 4.25468L28.1575 14.2547C28.3492 14.638 28.3858 15.0805 28.2598 15.4902L21.5931 37.1568C21.3224 38.0366 20.3897 38.5304 19.51 38.2597C18.6302 37.989 18.1365 37.0563 18.4072 36.1766L24.8774 15.1481L20.1761 5.7454C19.7644 4.9221 20.0981 3.92098 20.9214 3.50933Z" fill="#F87F7F"/>
<path fill-rule="evenodd" clip-rule="evenodd" d="M19.079 3.50933C19.9023 3.92098 20.236 4.9221 19.8244 5.7454L15.123 15.1481L21.5933 36.1766C21.864 37.0563 21.3702 37.989 20.4905 38.2597C19.6107 38.5304 18.6781 38.0366 18.4074 37.1568L11.7407 15.4902C11.6146 15.0805 11.6513 14.638 11.8429 14.2547L16.8429 4.25468C17.2546 3.43139 18.2557 3.09768 19.079 3.50933Z" fill="#F87F7F"/>
<path fill-rule="evenodd" clip-rule="evenodd" d="M1.66699 14.9999C1.66699 14.0794 2.41318 13.3333 3.33366 13.3333H36.667C37.5875 13.3333 38.3337 14.0794 38.3337 14.9999C38.3337 15.9204 37.5875 16.6666 36.667 16.6666H3.33366C2.41318 16.6666 1.66699 15.9204 1.66699 14.9999Z" fill="#F87F7F"/>
</svg>
