<svg width="40" height="40" viewBox="0 0 40 40" fill="none" xmlns="http://www.w3.org/2000/svg">
<path fill-rule="evenodd" clip-rule="evenodd" d="M19.9998 5.00008C11.7156 5.00008 4.99984 11.7158 4.99984 20.0001C4.99984 28.2844 11.7156 35.0001 19.9998 35.0001C28.2841 35.0001 34.9998 28.2844 34.9998 20.0001C34.9998 11.7158 28.2841 5.00008 19.9998 5.00008ZM1.6665 20.0001C1.6665 9.87486 9.87462 1.66675 19.9998 1.66675C30.1251 1.66675 38.3332 9.87486 38.3332 20.0001C38.3332 30.1253 30.1251 38.3334 19.9998 38.3334C9.87462 38.3334 1.6665 30.1253 1.6665 20.0001Z" fill="#F87F7F"/>
<path fill-rule="evenodd" clip-rule="evenodd" d="M1.6665 19.9999C1.6665 19.0794 2.4127 18.3333 3.33317 18.3333H36.6665C37.587 18.3333 38.3332 19.0794 38.3332 19.9999C38.3332 20.9204 37.587 21.6666 36.6665 21.6666H3.33317C2.4127 21.6666 1.6665 20.9204 1.6665 19.9999Z" fill="#F87F7F"/>
<path fill-rule="evenodd" clip-rule="evenodd" d="M15.0002 19.9999C15.1144 25.1247 16.8769 30.0585 19.9998 34.0819C23.1227 30.0585 24.8852 25.1247 24.9994 19.9999C24.8852 14.8752 23.1227 9.94134 19.9998 5.91793C16.8769 9.94134 15.1144 14.8752 15.0002 19.9999ZM19.9998 3.33327L18.7693 2.20923C14.328 7.07145 11.804 13.3814 11.6669 19.9652C11.6664 19.9884 11.6664 20.0115 11.6669 20.0346C11.804 26.6185 14.328 32.9284 18.7693 37.7906C19.085 38.1363 19.5316 38.3333 19.9998 38.3333C20.468 38.3333 20.9146 38.1363 21.2304 37.7906C25.6717 32.9284 28.1956 26.6185 28.3328 20.0346C28.3333 20.0115 28.3333 19.9884 28.3328 19.9652C28.1956 13.3814 25.6717 7.07145 21.2304 2.20923L19.9998 3.33327Z" fill="#F87F7F"/>
</svg>
