<svg width="40" height="40" viewBox="0 0 40 40" fill="none" xmlns="http://www.w3.org/2000/svg">
<path fill-rule="evenodd" clip-rule="evenodd" d="M27.5963 5.04669C26.7913 4.95573 25.9728 4.98209 25.1668 5.12896C23.5002 5.43261 21.9658 6.23694 20.768 7.43476C19.5701 8.63259 18.7658 10.167 18.4622 11.8336C18.1585 13.5001 18.37 15.2196 19.0684 16.7629C19.3544 17.3949 19.219 18.138 18.7284 18.6286L7.21177 30.1452C6.86129 30.4957 6.66439 30.9711 6.66439 31.4667C6.66439 31.9624 6.86129 32.4377 7.21177 32.7882C7.56225 33.1387 8.0376 33.3356 8.53326 33.3356C9.02891 33.3356 9.50426 33.1387 9.85474 32.7882L21.3714 21.2715C21.8619 20.781 22.605 20.6456 23.237 20.9316C24.7804 21.63 26.4999 21.8415 28.1664 21.5378C29.833 21.2342 31.3674 20.4298 32.5652 19.232C33.763 18.0342 34.5674 16.4997 34.871 14.8332C35.0179 14.0271 35.0442 13.2086 34.9533 12.4037L30.6666 16.6903C30.0435 17.3011 29.2058 17.6431 28.3333 17.6431C27.4607 17.6431 26.623 17.301 25.9999 16.6903L25.988 16.6786L23.3096 14.0001C22.6989 13.377 22.3568 12.5392 22.3568 11.6667C22.3568 10.7942 22.6989 9.95648 23.3097 9.33338L23.3214 9.32148L27.5963 5.04669ZM24.5693 1.84961C26.9024 1.42451 29.3097 1.72055 31.4704 2.69828C31.9688 2.92385 32.3249 3.3797 32.4229 3.91796C32.521 4.45623 32.3486 5.00835 31.9618 5.39523L25.6903 11.6667L28.3333 14.3097L34.6047 8.0382C34.9916 7.65133 35.5437 7.47897 36.082 7.57704C36.6203 7.67512 37.0761 8.03113 37.3017 8.52959C38.2794 10.6902 38.5755 13.0975 38.1504 15.4307C37.7252 17.7639 36.5992 19.9121 34.9222 21.589C33.2453 23.266 31.0971 24.392 28.7639 24.8172C26.8182 25.1717 24.8208 25.0246 22.958 24.399L12.2118 35.1452C11.2362 36.1208 9.91296 36.6689 8.53326 36.6689C7.15354 36.6689 5.83035 36.1208 4.85474 35.1452C3.87914 34.1696 3.33105 32.8464 3.33105 31.4667C3.33105 30.087 3.87914 28.7638 4.85474 27.7882L15.601 17.0419C14.9753 15.1791 14.8283 13.1818 15.1828 11.2361C15.6079 8.90289 16.734 6.7547 18.4109 5.07774C20.0879 3.40078 22.2361 2.27472 24.5693 1.84961Z" fill="#F87F7F"/>
</svg>
